<svg xmlns="http://www.w3.org/2000/svg" version="1.1" xmlns:xlink="http://www.w3.org/1999/xlink" xmlns:svgjs="http://svgjs.com/svgjs" width="1440" height="579" preserveAspectRatio="none" viewBox="0 0 1440 579"><g mask="url(&quot;#SvgjsMask1045&quot;)" fill="none"><rect width="1440" height="579" x="0" y="0" fill="rgba(77, 229, 180, 1)"></rect><path d="M189.10507245150694 504.6636220062651L55.23109073221565 450.57502243469503 1.1424911606455908 584.4490041539864 135.01647287993688 638.5376037255564z" fill="rgba(28, 83, 142, 0.4)" class="triangle-float2"></path><path d="M1195.238332054935 191.64256439711673L1228.2266565496213 273.2915326701455 1276.8873003279637 158.65423990243042z" fill="rgba(28, 83, 142, 0.4)" class="triangle-float3"></path><path d="M42.69 520.35 a151.39 151.39 0 1 0 302.78 0 a151.39 151.39 0 1 0 -302.78 0z" fill="rgba(28, 83, 142, 0.4)" class="triangle-float2"></path><path d="M333.01763958665885 130.25468113406717L302.4444032357223 209.90068482419105 437.2000269463764 215.93753750553395z" fill="rgba(28, 83, 142, 0.4)" class="triangle-float1"></path><path d="M401.226,296.144C455.788,299.877,514.887,282.081,541.179,234.125C566.791,187.408,543.792,132.504,515.792,87.178C489.597,44.773,450.979,10.562,401.226,7.567C345.895,4.236,285.813,22.732,259.984,71.777C235.265,118.715,262.669,172.108,290.93,217.002C316.768,258.047,352.839,292.833,401.226,296.144" fill="rgba(28, 83, 142, 0.4)" class="triangle-float2"></path><path d="M1313.3648032760227 189.6199569812152L1155.4238851823602 209.01266325794717 1174.8165914590923 366.95358135160956 1332.7575095527548 347.5608750748776z" fill="rgba(28, 83, 142, 0.4)" class="triangle-float1"></path><path d="M466.8 458.02 a100.4 100.4 0 1 0 200.8 0 a100.4 100.4 0 1 0 -200.8 0z" fill="rgba(28, 83, 142, 0.4)" class="triangle-float3"></path><path d="M753.518,649.734C798.588,648.99,835.312,617.533,857.525,578.31C879.373,539.732,884.62,493.715,864.146,454.391C842.016,411.887,801.42,377.227,753.518,378.545C707.256,379.818,675.001,419.509,652.957,460.202C632.193,498.532,622.958,543.336,643.39,581.844C665.053,622.673,707.304,650.497,753.518,649.734" fill="rgba(28, 83, 142, 0.4)" class="triangle-float3"></path><path d="M1078.82,245.507C1127.325,246.048,1166.978,211.568,1191.451,169.686C1216.184,127.357,1228.705,74.709,1203.02,32.951C1178.205,-7.394,1126.168,-14.753,1078.82,-13.432C1034.328,-12.191,988.964,1.392,966.069,39.561C942.595,78.696,948.545,127.191,970.46,167.22C993.395,209.113,1031.063,244.974,1078.82,245.507" fill="rgba(28, 83, 142, 0.4)" class="triangle-float2"></path><path d="M937.755,481.984C953.463,482.531,970.409,479.956,979.056,466.83C988.447,452.574,988.298,433.502,979.216,419.047C970.629,405.379,953.897,401.062,937.755,401.092C921.677,401.122,904.631,405.295,896.556,419.198C888.454,433.148,892.301,450.629,901.151,464.117C909.134,476.284,923.212,481.478,937.755,481.984" fill="rgba(28, 83, 142, 0.4)" class="triangle-float1"></path><path d="M522.65 506.56 a99.15 99.15 0 1 0 198.3 0 a99.15 99.15 0 1 0 -198.3 0z" fill="rgba(28, 83, 142, 0.4)" class="triangle-float2"></path><path d="M208.16789978382224 193.60989223470864L118.18169119637449 120.74049731283804 45.31229627450389 210.7267059002858 135.29850486195164 283.59610082215636z" fill="rgba(28, 83, 142, 0.4)" class="triangle-float1"></path><path d="M1080.7547198647128 379.70799007162725L1218.663360753953 303.43570431313947 1101.8337005043934 230.43243022921033z" fill="rgba(28, 83, 142, 0.4)" class="triangle-float3"></path><path d="M1395.218,326.836C1439.809,325.088,1471.131,289.292,1494.836,251.484C1520.733,210.18,1547.035,162.461,1525.788,118.584C1502.509,70.512,1448.573,43.291,1395.218,45.766C1345.49,48.073,1307.488,85.869,1284.07,129.798C1262.206,170.813,1258.253,219.379,1281.089,259.861C1304.317,301.038,1347.977,328.688,1395.218,326.836" fill="rgba(28, 83, 142, 0.4)" class="triangle-float1"></path><path d="M1447.742,443.583C1484.191,444.433,1519.175,426.494,1537.46,394.952C1555.797,363.319,1554.394,323.783,1535.247,292.633C1516.953,262.871,1482.677,249.116,1447.742,248.989C1412.553,248.861,1376.855,261.594,1359.132,291.994C1341.298,322.584,1347.119,360.363,1364.988,390.932C1382.672,421.185,1412.71,442.766,1447.742,443.583" fill="rgba(28, 83, 142, 0.4)" class="triangle-float3"></path><path d="M539.6616523811986 292.6297774704664L410.20413193643446 290.37008804565704 407.9444425116251 419.8276084904211 537.4019629563892 422.08729791523047z" fill="rgba(28, 83, 142, 0.4)" class="triangle-float3"></path><path d="M1196.8806184171394 435.2499792725283L1128.178813249552 364.10717740935786 1057.0360113863815 432.80898257694537 1125.737816553969 503.9517844401158z" fill="rgba(28, 83, 142, 0.4)" class="triangle-float2"></path><path d="M437.86990330065623 37.388310339322175L308.39093297189123 142.23831314608617 413.2409357786552 271.7172834748512 542.7199061074202 166.86728066808718z" fill="rgba(28, 83, 142, 0.4)" class="triangle-float3"></path><path d="M626.3970380874995 190.45043302405003L767.1032816248675 202.76063422088748 779.4134828217049 62.05439068351953 638.707239284337 49.744189486682075z" fill="rgba(28, 83, 142, 0.4)" class="triangle-float2"></path><path d="M1252.1311416850335 124.99740773075155L1125.707248073663 111.58789318616462 1169.1308757566833 213.88754919585722z" fill="rgba(28, 83, 142, 0.4)" class="triangle-float2"></path></g><defs><mask id="SvgjsMask1045"><rect width="1440" height="579" fill="#ffffff"></rect></mask><style>
            @keyframes float1 {
                0%{transform: translate(0, 0)}
                50%{transform: translate(-10px, 0)}
                100%{transform: translate(0, 0)}
            }

            .triangle-float1 {
                animation: float1 5s infinite;
            }

            @keyframes float2 {
                0%{transform: translate(0, 0)}
                50%{transform: translate(-5px, -5px)}
                100%{transform: translate(0, 0)}
            }

            .triangle-float2 {
                animation: float2 4s infinite;
            }

            @keyframes float3 {
                0%{transform: translate(0, 0)}
                50%{transform: translate(0, -10px)}
                100%{transform: translate(0, 0)}
            }

            .triangle-float3 {
                animation: float3 6s infinite;
            }
        </style></defs></svg>